<?xml version="1.0" encoding="utf-8"?>
<svg viewBox="314.009 228.55 16 20.005" width="16" height="20.005" xmlns="http://www.w3.org/2000/svg">
  <path d="M 319.719 233.265 L 321.009 231.965 L 321.009 240.555 C 321.009 240.821 321.114 241.075 321.302 241.262 C 321.489 241.45 321.744 241.555 322.009 241.555 C 322.274 241.555 322.528 241.45 322.716 241.262 C 322.903 241.075 323.009 240.821 323.009 240.555 L 323.009 231.965 L 324.299 233.265 C 324.392 233.359 324.502 233.433 324.624 233.484 C 324.746 233.535 324.877 233.561 325.009 233.561 C 325.141 233.561 325.272 233.535 325.393 233.484 C 325.515 233.433 325.626 233.359 325.719 233.265 C 325.813 233.172 325.887 233.062 325.938 232.94 C 325.989 232.818 326.015 232.687 326.015 232.555 C 326.015 232.423 325.989 232.293 325.938 232.171 C 325.887 232.049 325.813 231.938 325.719 231.845 L 322.719 228.845 C 322.626 228.752 322.515 228.677 322.393 228.626 C 322.272 228.576 322.141 228.55 322.009 228.55 C 321.877 228.55 321.746 228.576 321.624 228.626 C 321.502 228.677 321.392 228.752 321.299 228.845 L 318.299 231.845 C 318.111 232.034 318.005 232.289 318.005 232.555 C 318.005 232.822 318.111 233.077 318.299 233.265 C 318.487 233.454 318.743 233.559 319.009 233.559 C 319.275 233.559 319.531 233.454 319.719 233.265 Z" style="fill: rgb(255, 255, 255);"/>
  <path d="M 328.009 235.555 L 325.009 235.555 L 325.009 237.555 L 328.009 237.555 L 328.009 246.555 L 316.009 246.555 L 316.009 237.555 L 319.009 237.555 L 319.009 235.555 L 316.009 235.555 C 315.478 235.555 314.97 235.766 314.595 236.141 C 314.22 236.516 314.009 237.025 314.009 237.555 L 314.009 246.555 C 314.009 247.086 314.22 247.594 314.595 247.97 C 314.97 248.345 315.478 248.555 316.009 248.555 L 328.009 248.555 C 328.539 248.555 329.048 248.345 329.423 247.97 C 329.798 247.594 330.009 247.086 330.009 246.555 L 330.009 237.555 C 330.009 237.025 329.798 236.516 329.423 236.141 C 329.048 235.766 328.539 235.555 328.009 235.555 Z" style="fill: rgb(255, 255, 255);"/>
  <path d="M 319.719 233.265 L 321.009 231.965 L 321.009 240.555 C 321.009 240.821 321.114 241.075 321.302 241.262 C 321.489 241.45 321.744 241.555 322.009 241.555 C 322.274 241.555 322.528 241.45 322.716 241.262 C 322.903 241.075 323.009 240.821 323.009 240.555 L 323.009 231.965 L 324.299 233.265 C 324.392 233.359 324.502 233.433 324.624 233.484 C 324.746 233.535 324.877 233.561 325.009 233.561 C 325.141 233.561 325.272 233.535 325.393 233.484 C 325.515 233.433 325.626 233.359 325.719 233.265 C 325.813 233.172 325.887 233.062 325.938 232.94 C 325.989 232.818 326.015 232.687 326.015 232.555 C 326.015 232.423 325.989 232.293 325.938 232.171 C 325.887 232.049 325.813 231.938 325.719 231.845 L 322.719 228.845 C 322.626 228.752 322.515 228.677 322.393 228.626 C 322.272 228.576 322.141 228.55 322.009 228.55 C 321.877 228.55 321.746 228.576 321.624 228.626 C 321.502 228.677 321.392 228.752 321.299 228.845 L 318.299 231.845 C 318.111 232.034 318.005 232.289 318.005 232.555 C 318.005 232.822 318.111 233.077 318.299 233.265 C 318.487 233.454 318.743 233.559 319.009 233.559 C 319.275 233.559 319.531 233.454 319.719 233.265 Z" style="fill: rgb(255, 255, 255);"/>
</svg>